<?xml version="1.0" encoding="utf-8"?>
<!-- Generator: Adobe Illustrator 16.0.3, SVG Export Plug-In . SVG Version: 6.00 Build 0)  -->
<!DOCTYPE svg PUBLIC "-//W3C//DTD SVG 1.1//EN" "http://www.w3.org/Graphics/SVG/1.1/DTD/svg11.dtd">
<svg version="1.1" id="Layer_1" xmlns="http://www.w3.org/2000/svg" xmlns:xlink="http://www.w3.org/1999/xlink" x="0px" y="0px"
	 width="500px" height="500px" viewBox="0 0 500 500" enable-background="new 0 0 500 500" xml:space="preserve">
<g>
	<g>
		<g>
			<path fill="#37383E" d="M169.79,247.271c0-13.734,3.554-21.628,16.446-21.628c12.892,0,16.506,7.773,16.506,21.628
				c0,14.34-3.552,21.268-16.506,21.268C173.282,268.539,169.79,261.247,169.79,247.271z M197.923,247.271
				c0-11.265-2.168-17.53-11.687-17.53c-9.579,0-11.688,6.204-11.688,17.53c0,11.388,2.049,17.169,11.688,17.169
				C195.935,264.44,197.923,259.021,197.923,247.271z"/>
			<path fill="#37383E" d="M210.447,237.813h4.461v2.169c0,0,4.578-2.77,9.036-2.77c7.59,0,10.904,4.637,10.904,15.304
				c0,11.806-3.855,16.023-13.133,16.023c-2.83,0-5.906-0.484-6.748-0.664v13.438h-4.521V237.813z M214.968,243.658v20.301
				c0.785,0.12,3.917,0.662,6.505,0.662c6.626,0,8.798-3.434,8.798-12.105c0-8.255-2.592-11.27-6.99-11.27
				C219.186,241.247,214.968,243.658,214.968,243.658z"/>
			<path fill="#37383E" d="M264.427,264.021l0.119,3.555c0,0-6.865,0.965-11.748,0.965c-8.973,0-11.927-5.242-11.927-15.482
				c0-11.449,4.94-15.844,12.593-15.844c8.011,0,12.108,4.218,12.108,14.095l-0.244,3.436h-19.877c0,6.444,1.987,9.819,7.89,9.819
				C257.86,264.562,264.427,264.021,264.427,264.021z M261.054,251.128c0-7.47-2.288-10.121-7.59-10.121
				c-5.119,0-8.013,2.831-8.075,10.121H261.054z"/>
			<path fill="#37383E" d="M272.618,267.938v-30.125h4.457v2.11c0,0,4.88-2.71,9.338-2.71c8.314,0,10.181,4.095,10.181,14.82v15.906
				h-4.458v-15.787c0-7.951-0.903-10.905-6.506-10.905c-4.338,0-8.493,2.23-8.493,2.23v24.461L272.618,267.938L272.618,267.938z"/>
		</g>
		<g>
			<path fill="#37383E" d="M328.759,230.704c0,0-8.372-1.023-11.865-1.023c-5.905,0-9.037,2.111-9.037,6.808
				c0,5.421,2.893,6.325,10.183,7.953c8.312,1.866,11.987,3.915,11.987,11.207c0,9.217-5.059,12.831-13.314,12.831
				c-4.941,0-13.193-1.326-13.193-1.326l0.479-3.854c0,0,8.198,1.083,12.474,1.083c5.905,0,8.917-2.591,8.917-8.372
				c0-4.701-2.47-6.024-9.277-7.354c-8.615-1.864-12.955-3.914-12.955-11.864c0-8.075,5.302-11.207,13.438-11.207
				c4.938,0,12.59,1.203,12.59,1.203L328.759,230.704z"/>
			<path fill="#37383E" d="M363.217,267.272c-2.952,0.603-7.529,1.267-11.507,1.267c-12.469,0-15.24-7.592-15.24-21.327
				c0-14.097,2.711-21.569,15.24-21.569c4.278,0,8.861,0.783,11.507,1.326l-0.18,3.916c-2.71-0.483-7.591-1.085-10.842-1.085
				c-9.278,0-10.907,5.542-10.907,17.412c0,11.627,1.507,17.169,11.028,17.169c3.37,0,7.828-0.542,10.721-1.084L363.217,267.272z"/>
			<path fill="#37383E" d="M378.578,226.247h10.12l11.447,41.691h-4.578l-3.013-10.728h-17.834l-3.01,10.728h-4.579L378.578,226.247
				z M375.746,253.057h15.783l-6.324-22.832h-3.134L375.746,253.057z"/>
			<path fill="#37383E" d="M411.347,253.9v14.038h-4.638v-41.691h15.245c9.093,0,13.312,4.396,13.312,13.434
				c0,9.097-4.219,14.22-13.312,14.22H411.347z M421.891,249.803c6.086,0,8.616-3.677,8.616-10.122c0-6.384-2.53-9.337-8.616-9.337
				h-10.544v19.459H421.891z"/>
		</g>
	</g>
	<g>
		<path fill="#064780" d="M65.576,246.928c0-10.681,4.106-20.773,11.696-28.364c8.049-8.048,18.582-12.27,29.658-11.885
			c10.19,0.349,20.078,4.598,27.136,11.656c7.569,7.568,11.789,17.606,11.884,28.265c0.071,10.807-4.113,21.043-11.855,28.786
			c-15.634,15.635-41.14,15.562-56.863-0.159c-1.748-1.747-2.273-4.935,0.194-7.4l10.684-10.688
			c-2.423-4.301-5.85-15.566,3.118-24.537c9.016-9.015,22.028-7.167,28.911-0.283c3.882,3.882,6.041,8.966,6.074,14.323
			c0.071,5.488-2.173,10.728-6.235,14.792c-4.954,4.952-12.098,6.894-19.116,5.197c-1.774-0.432-2.866-2.221-2.438-3.998
			c0.43-1.775,2.218-2.868,3.996-2.438c4.828,1.167,9.52-0.089,12.875-3.442c2.776-2.778,4.299-6.314,4.299-9.975
			c0-0.03,0-0.061,0-0.093c-0.025-3.604-1.495-7.042-4.135-9.687c-4.633-4.632-13.428-5.84-19.553,0.286
			c-7.473,7.474-1.946,16.748-1.889,16.84c1.824,2.886,0.876,5.902-1.034,7.505l-9.967,9.966
			c11.692,10.598,32.234,13.271,46.396-0.891c6.404-6.402,9.919-14.823,9.919-23.742c0-0.103,0-0.203-0.001-0.305
			c-0.08-8.911-3.611-17.306-9.946-23.642c-5.885-5.885-14.154-9.427-22.681-9.722c-9.225-0.318-18.013,3.216-24.751,9.954
			c-10.317,10.314-10.302,22.506-9.377,28.852c0.404,2.79,1.293,5.763,2.57,8.598c0.75,1.666,0.007,3.628-1.66,4.378
			c-1.667,0.748-3.627,0.006-4.375-1.659c-1.549-3.438-2.585-6.924-3.088-10.359C65.724,251,65.576,248.956,65.576,246.928z"/>
	</g>
</g>
</svg>
